<?xml version="1.0" encoding="utf-8"?>
<!-- Generator: Adobe Illustrator 21.1.0, SVG Export Plug-In . SVG Version: 6.00 Build 0)  -->
<svg version="1.1" id="Layer_1" xmlns="http://www.w3.org/2000/svg" xmlns:xlink="http://www.w3.org/1999/xlink" x="0px" y="0px"
	 viewBox="0 0 2000 2000" style="enable-background:new 0 0 2000 2000;" xml:space="preserve">
<style type="text/css">
	.st0{fill:white;}
</style>
<path class="st0" d="M1928.2,648.6c-63.9-54.6-159.9-47-214.5,16.9c-23.6,27.6-36.5,62.7-36.5,99V1067c-10.5-3.5-21.4-5.9-32.5-7
	c-45.6-5.1-91,10.8-123.5,43.3L1150.1,1474c-51.7,51.8-80.5,122.1-80.2,195.2v234.3c0,27.7,22.4,50.1,50.1,50.1s50.1-22.4,50.1-50.1
	v-234.1c-0.5-46.7,17.7-91.6,50.5-124.9l370.8-371c21.1-19.5,53.9-18.2,73.4,2.9c18.4,19.9,18.4,50.6,0,70.5L1450,1462.2
	c-19.4,19.7-19.2,51.4,0.5,70.9c19.7,19.4,51.4,19.2,70.9-0.5l214.3-214.9c30.5-30.3,46.7-72.1,44.5-115.1c0.1-1.3,0.1-2.5,0-3.8
	l-3.2-434.2c-0.2-26.2,19.1-48.5,45.1-52.1c28.7-4.2,55.4,15.6,59.6,44.3c0.4,2.5,0.6,5,0.6,7.6v562.4c0.1,56.6-22.4,111-62.5,150.9
	l-298.3,298.7c-9.4,9.4-14.6,22-14.6,35.3v91.8c0,27.7,22.4,50.1,50.1,50.1s50.1-22.4,50.1-50.1v-71.2l283.2-284
	c58.7-58.4,91.8-137.7,91.8-220.5V764.5C1981.9,719.9,1962.3,677.5,1928.2,648.6z"/>
<path class="st0" d="M394.3,1832.4v71.2c0,27.7,22.4,50.1,50.1,50.1c27.7,0,50.1-22.4,50.1-50.1v-91.8c-0.2-13.4-5.8-26.1-15.4-35.3
	l-298.3-298.7c-40.2-39.9-62.7-94.3-62.5-150.9V764.5c0-29,23.6-52.5,52.6-52.5c2.5,0,5.1,0.2,7.6,0.6c25.5,4.1,44.2,26.1,44.1,51.9
	l-2.6,434.6l0,0c-3.3,44,12.9,87.2,44.3,118.3L479,1532.6c18.9,20,50.5,20.9,70.6,2c20-18.9,20.9-50.5,2-70.6c-0.6-0.7-1.3-1.3-2-2
	l-214.3-214.9c-19.5-21.1-18.2-53.9,2.9-73.4c19.9-18.4,50.6-18.4,70.5,0l371,370.8c33.2,33,51.8,77.9,51.7,124.7v234.3
	c0,27.7,22.4,50.1,50.1,50.1c27.7,0,50.1-22.4,50.1-50.1v-234.1c0.4-73.2-28.5-143.4-80.2-195.2l-372.4-371
	c-32.4-32.4-77.9-48.4-123.5-43.3c-11.1,1.2-22.1,3.6-32.7,7.2V764.5c0-84.2-68.2-152.4-152.4-152.4S18,680.3,18,764.5v562.4
	c0,82.8,33.1,162.1,91.8,220.5L394.3,1832.4z"/>
<path class="st0" d="M1013,590.1h-1.6c-92.8-21.2-92.8-60.1-92.8-72.2c0-48.7,42.5-70.8,81.8-70.8c33-0.1,62.8,19.7,75.6,50.1
	c8.5,26.2,36.6,40.6,62.8,32.2c26.2-8.5,40.6-36.6,32.2-62.8c-0.9-2.8-2-5.5-3.4-8.1c-21.2-51-64.5-89.5-117.7-104.4v-43.3
	c0-27.7-22.4-50.1-50.1-50.1c-27.7,0-50.1,22.4-50.1,50.1l0,0v42.3c-77.1,17-131.9,85.4-131.7,164.4c0,48.5,22,134.7,168.6,168.8
	h1.6c92.8,21.2,92.8,60.1,92.8,72.2c0,48.7-42.5,70.8-81.8,70.8c-32.6-0.2-61.9-19.9-74.6-49.9c-9.5-25.9-38.2-39.1-64.1-29.6
	c-25.9,9.5-39.1,38.2-29.6,64.1c0.5,1.3,1,2.7,1.7,4c21.2,51,64.5,89.5,117.7,104.4v43.5c0,27.7,22.4,50.1,50.1,50.1
	c27.7,0,50.1-22.4,50.1-50.1v-42.3c76.7-17.3,131.2-85.5,131.1-164.2C1181.6,710.6,1160.5,624.4,1013,590.1z"/>
<path class="st0" d="M1592.3,639c0.3-327-264.5-592.4-591.5-592.7c-327-0.3-592.4,264.5-592.7,591.5s264.5,592.4,591.5,592.7
	c0.2,0,0.4,0,0.6,0C1326.8,1230.2,1591.6,965.7,1592.3,639z M1000.2,1130.7c-272,0-492.5-220.5-492.5-492.5
	c0-272,220.5-492.5,492.5-492.5c272,0,492.5,220.5,492.5,492.5c0,0.3,0,0.5,0,0.8C1492,910.6,1271.8,1130.5,1000.2,1130.7z"/>
</svg>
